<svg xmlns="http://www.w3.org/2000/svg" width="149" height="40" viewBox="0 0 149 40" fill="none"><path d="M41.251 24.6644V13.8848H45.4696C46.4954 13.8848 47.3802 14.1158 48.1367 14.5649C48.8932 15.0141 49.4702 15.6429 49.8934 16.4642C50.3037 17.2726 50.5217 18.2094 50.5217 19.2874C50.5217 20.3654 50.3165 21.3022 49.9062 22.1106C49.4959 22.9191 48.9189 23.5479 48.1623 23.9971C47.4058 24.4462 46.5082 24.6772 45.4824 24.6772H41.251V24.6644ZM45.3927 15.4889H42.9179V23.0603H45.3927C46.4826 23.0603 47.3289 22.7266 47.9187 22.0465C48.5214 21.3792 48.8163 20.4424 48.8163 19.2617C48.8163 18.0939 48.5086 17.17 47.9059 16.4898C47.3032 15.8225 46.4698 15.4889 45.3927 15.4889Z" fill="#242E17"></path><path d="M53.7274 14.7959C53.394 14.7959 53.1247 14.706 52.9452 14.5392C52.7657 14.3596 52.6631 14.1157 52.6631 13.7949C52.6631 13.4998 52.7528 13.2559 52.9452 13.0763C53.1375 12.8966 53.394 12.7939 53.7274 12.7939C54.0607 12.7939 54.33 12.8838 54.5095 13.0506C54.6891 13.2303 54.7916 13.4741 54.7916 13.7949C54.7916 14.0901 54.7019 14.3339 54.5095 14.5135C54.3172 14.706 54.0607 14.7959 53.7274 14.7959ZM52.958 24.6643V16.5796H54.548V24.6643H52.958Z" fill="#242E17"></path><path d="M57.2535 24.6646V16.5799H58.8564V18.107C59.0872 17.6194 59.4334 17.2216 59.8822 16.9007C60.331 16.5799 60.8054 16.4131 61.3183 16.4131C61.4978 16.4131 61.6645 16.4259 61.8184 16.4644C61.9722 16.4901 62.1005 16.5286 62.1902 16.5671L61.7799 18.2867C61.6517 18.2354 61.5235 18.1969 61.3696 18.1584C61.2157 18.1199 61.0747 18.107 60.9336 18.107C60.5618 18.107 60.2284 18.1969 59.9078 18.3893C59.6001 18.569 59.3436 18.8257 59.1513 19.1465C58.9589 19.4673 58.8564 19.8138 58.8564 20.2116V24.6646H57.2535Z" fill="#242E17"></path><path d="M67.1911 24.8179C66.3576 24.8179 65.6267 24.6382 64.9856 24.2918C64.3444 23.9324 63.8444 23.4576 63.4725 22.8416C63.1135 22.2257 62.9211 21.5199 62.9211 20.7114C62.9211 19.8644 63.1007 19.1073 63.4469 18.4656C63.8059 17.824 64.2932 17.3235 64.9086 16.9514C65.5241 16.592 66.2422 16.3996 67.0372 16.3867C67.7296 16.3996 68.3579 16.5664 68.9221 16.9129C69.4863 17.2465 69.9223 17.7085 70.2428 18.2988C70.5634 18.8891 70.7173 19.5564 70.6916 20.3136L70.6788 20.9937H64.4983C64.5881 21.7252 64.8958 22.3027 65.3959 22.7261C65.9088 23.1496 66.5499 23.3678 67.3321 23.3678C67.7296 23.3678 68.1015 23.3036 68.4477 23.1625C68.7939 23.0341 69.1657 22.7903 69.5632 22.4438L70.3582 23.5731C69.9736 23.9453 69.4991 24.2404 68.9093 24.4714C68.3194 24.7024 67.7681 24.8179 67.1911 24.8179ZM67.05 17.8625C65.6652 17.8625 64.8445 18.4913 64.5753 19.7361H69.1016V19.6334C69.076 19.2998 68.9606 18.9918 68.7682 18.7223C68.5759 18.4528 68.3323 18.2475 68.0245 18.0935C67.7296 17.9395 67.3962 17.8625 67.05 17.8625Z" fill="#242E17"></path><path d="M76.1797 24.8187C75.436 24.8187 74.7564 24.6391 74.1665 24.2669C73.5767 23.8948 73.1151 23.3943 72.7689 22.7527C72.4227 22.111 72.256 21.4052 72.256 20.6096C72.256 19.8139 72.4227 19.1081 72.7689 18.4665C73.1151 17.8248 73.5767 17.3244 74.1665 16.9522C74.7564 16.58 75.4232 16.4004 76.1797 16.4004C76.8977 16.4004 77.5517 16.5416 78.1415 16.8367C78.7314 17.1319 79.1802 17.5297 79.4879 18.0302L78.616 19.1081C78.3723 18.7488 78.0261 18.4408 77.5902 18.197C77.1542 17.9532 76.7311 17.8248 76.3336 17.8248C75.8463 17.8248 75.3975 17.9403 75.0128 18.1842C74.6282 18.428 74.3204 18.7616 74.1024 19.1723C73.8716 19.5958 73.769 20.0706 73.769 20.5839C73.769 21.0972 73.8844 21.572 74.1281 21.9955C74.3589 22.4062 74.6794 22.7398 75.0641 22.9836C75.4488 23.2275 75.8848 23.3558 76.3592 23.3558C77.1927 23.3558 77.9492 22.9451 78.616 22.1238L79.4879 23.2018C79.1545 23.6638 78.6929 24.0488 78.0774 24.3439C77.4619 24.6776 76.8336 24.8187 76.1797 24.8187Z" fill="#242E17"></path><path d="M82.2832 24.6645V18.1197H80.6034V16.5798H82.2832V14.5137H83.8732V16.5798H85.7453V18.1197H83.8732V24.6645H82.2832Z" fill="#242E17"></path><path d="M92.272 24.8181C91.2718 24.8181 90.3871 24.5871 89.6177 24.1123C88.8483 23.6374 88.2329 22.983 87.7969 22.1617C87.3609 21.3275 87.1301 20.3651 87.1301 19.2871C87.1301 18.5171 87.2712 17.7985 87.5405 17.144C87.8097 16.4767 88.1944 15.8992 88.6688 15.3988C89.1561 14.8983 89.7075 14.5005 90.3486 14.231C90.9897 13.9486 91.6693 13.8203 92.413 13.8203C92.9388 13.8203 93.4517 13.8973 93.9389 14.0641C94.439 14.2181 94.8878 14.4491 95.2981 14.7314C95.7084 15.0138 96.029 15.3346 96.2854 15.6939L95.1827 16.8489C94.2979 15.9506 93.3747 15.4886 92.413 15.4886C91.7463 15.4886 91.1436 15.6554 90.5922 15.9762C90.0537 16.3099 89.6177 16.759 89.2971 17.3365C88.9766 17.914 88.8227 18.5685 88.8227 19.3128C88.8227 20.1084 88.9766 20.7886 89.2971 21.366C89.6049 21.9435 90.0408 22.3927 90.605 22.7006C91.1692 23.0215 91.8104 23.1755 92.5541 23.1755C93.067 23.1755 93.5542 23.0728 94.0287 22.8675C94.5031 22.6621 94.9134 22.3798 95.2596 22.0205L96.0931 23.3808C95.8623 23.6631 95.5417 23.9069 95.1314 24.1379C94.7211 24.3689 94.2723 24.5357 93.7722 24.6641C93.2721 24.7539 92.7721 24.8181 92.272 24.8181Z" fill="#8EB55A"></path><path d="M98.2601 24.6641V13.2686H99.8501V17.837C100.119 17.4392 100.491 17.0927 100.979 16.8233C101.466 16.5409 101.966 16.4126 102.492 16.4126C104.338 16.4126 105.261 17.5162 105.261 19.7363V24.6641H103.671V19.839C103.671 18.453 103.107 17.7857 101.966 17.8499C101.568 17.8499 101.209 17.9397 100.876 18.1065C100.555 18.2734 100.299 18.5044 100.119 18.7867C99.9399 19.069 99.8373 19.4027 99.8373 19.762V24.6641H98.2601Z" fill="#8EB55A"></path><path d="M110.826 24.8187C110.16 24.8187 109.557 24.6391 109.005 24.2669C108.454 23.8948 108.018 23.3943 107.685 22.7527C107.351 22.111 107.198 21.3924 107.198 20.5967C107.198 19.7883 107.364 19.0696 107.698 18.428C108.031 17.7992 108.48 17.2987 109.057 16.9394C109.621 16.5801 110.262 16.4004 110.967 16.4004C111.57 16.4004 112.109 16.5287 112.57 16.7982C113.032 17.0549 113.391 17.4014 113.634 17.812V16.58H115.237V24.6647H113.647V23.42C113.365 23.8049 112.98 24.1386 112.468 24.4081C111.955 24.6904 111.416 24.8187 110.826 24.8187ZM111.237 23.3558C111.724 23.3558 112.147 23.2403 112.519 22.9965C112.891 22.7655 113.173 22.4318 113.391 22.0212C113.596 21.6105 113.711 21.1357 113.711 20.5967C113.711 20.0706 113.609 19.6086 113.391 19.198C113.186 18.7873 112.891 18.4665 112.519 18.2227C112.147 17.9917 111.724 17.8633 111.237 17.8633C110.762 17.8633 110.352 17.9788 109.98 18.2227C109.621 18.4536 109.326 18.7873 109.121 19.198C108.916 19.6086 108.8 20.0706 108.8 20.5967C108.8 21.1357 108.903 21.6105 109.121 22.0212C109.326 22.4318 109.621 22.7655 109.98 22.9965C110.352 23.2403 110.775 23.3558 111.237 23.3558Z" fill="#8EB55A"></path><path d="M117.763 24.6646V16.5799H119.366V18.107C119.597 17.6194 119.943 17.2216 120.392 16.9007C120.841 16.5799 121.315 16.4131 121.828 16.4131C122.007 16.4131 122.174 16.4259 122.328 16.4644C122.482 16.4901 122.61 16.5286 122.7 16.5671L122.29 18.2867C122.161 18.2354 122.033 18.1969 121.879 18.1584C121.725 18.1199 121.584 18.107 121.443 18.107C121.071 18.107 120.738 18.1969 120.417 18.3893C120.11 18.569 119.853 18.8257 119.661 19.1465C119.469 19.4673 119.366 19.8138 119.366 20.2116V24.6646H117.763Z" fill="#8EB55A"></path><path d="M127.662 28.2058C127.085 28.2058 126.521 28.1159 125.944 27.9363C125.38 27.7566 124.918 27.5256 124.572 27.2305L125.162 25.9985C125.47 26.2295 125.854 26.422 126.303 26.5632C126.765 26.7043 127.214 26.7813 127.662 26.7813C129.381 26.7813 130.227 25.9729 130.227 24.3431V23.3678C130.086 23.6244 129.868 23.8554 129.586 24.0736C129.304 24.2918 128.983 24.4586 128.637 24.5997C128.291 24.7409 127.919 24.8051 127.547 24.8051C126.778 24.8051 126.098 24.6254 125.495 24.2533C124.893 23.8939 124.418 23.3935 124.072 22.7646C123.726 22.1358 123.546 21.4172 123.546 20.5959C123.546 19.7874 123.713 19.0688 124.059 18.4271C124.405 17.7983 124.88 17.2979 125.47 16.9385C126.072 16.5792 126.739 16.3867 127.496 16.3867C128.06 16.3867 128.586 16.515 129.086 16.7717C129.586 17.0284 129.958 17.3235 130.227 17.6443V16.5792H131.817V24.1763C131.817 25.4595 131.445 26.4477 130.714 27.1535C129.97 27.8593 128.957 28.2058 127.662 28.2058ZM127.726 23.355C128.226 23.355 128.675 23.2395 129.06 22.9956C129.445 22.7646 129.752 22.431 129.97 22.0203C130.188 21.6097 130.291 21.1349 130.291 20.6087C130.291 20.0697 130.176 19.5949 129.958 19.1843C129.74 18.7736 129.432 18.44 129.047 18.209C128.662 17.978 128.214 17.8497 127.714 17.8497C127.226 17.8497 126.778 17.9652 126.393 18.209C126.008 18.4528 125.7 18.7736 125.482 19.1971C125.264 19.6078 125.149 20.0826 125.149 20.6087C125.149 21.1349 125.264 21.5969 125.482 22.0203C125.7 22.431 126.008 22.7646 126.393 22.9956C126.79 23.2395 127.226 23.355 127.726 23.355Z" fill="#8EB55A"></path><path d="M138.113 24.8179C137.279 24.8179 136.548 24.6382 135.907 24.2918C135.266 23.9324 134.766 23.4576 134.394 22.8416C134.035 22.2257 133.843 21.5199 133.843 20.7114C133.843 19.8644 134.022 19.1073 134.368 18.4656C134.728 17.824 135.215 17.3235 135.83 16.9514C136.446 16.592 137.164 16.3996 137.959 16.3867C138.651 16.3996 139.28 16.5664 139.844 16.9129C140.408 17.2465 140.844 17.7085 141.164 18.2988C141.485 18.8891 141.639 19.5564 141.613 20.3136L141.6 20.9937H135.42C135.51 21.7252 135.817 22.3027 136.318 22.7261C136.83 23.1496 137.472 23.3678 138.254 23.3678C138.651 23.3678 139.023 23.3036 139.369 23.1625C139.716 23.0341 140.087 22.7903 140.485 22.4438L141.28 23.5731C140.895 23.9453 140.421 24.2404 139.831 24.4714C139.267 24.7024 138.677 24.8179 138.113 24.8179ZM137.972 17.8625C136.587 17.8625 135.766 18.4913 135.497 19.7361H140.023V19.6334C139.998 19.2998 139.882 18.9918 139.69 18.7223C139.498 18.4528 139.254 18.2475 138.946 18.0935C138.638 17.9395 138.318 17.8625 137.972 17.8625Z" fill="#8EB55A"></path><path d="M21.2863 13.4608C21.7112 13.4608 22.0557 13.1161 22.0557 12.6909C22.0557 12.2656 21.7112 11.9209 21.2863 11.9209C20.8614 11.9209 20.517 12.2656 20.517 12.6909C20.517 13.1161 20.8614 13.4608 21.2863 13.4608Z" fill="#242E17"></path><path d="M21.2863 7.3013C21.8528 7.3013 22.3121 6.84167 22.3121 6.27467C22.3121 5.70768 21.8528 5.24805 21.2863 5.24805C20.7198 5.24805 20.2605 5.70768 20.2605 6.27467C20.2605 6.84167 20.7198 7.3013 21.2863 7.3013Z" fill="#242E17"></path><path d="M21.2863 27.5771C21.7112 27.5771 22.0557 27.2323 22.0557 26.8071C22.0557 26.3818 21.7112 26.0371 21.2863 26.0371C20.8614 26.0371 20.517 26.3818 20.517 26.8071C20.517 27.2323 20.8614 27.5771 21.2863 27.5771Z" fill="#8EB55A"></path><path d="M21.2863 33.7366C21.5696 33.7366 21.7992 33.5068 21.7992 33.2233C21.7992 32.9398 21.5696 32.71 21.2863 32.71C21.0031 32.71 20.7734 32.9398 20.7734 33.2233C20.7734 33.5068 21.0031 33.7366 21.2863 33.7366Z" fill="#E5EADA"></path><path d="M14.2338 20.5194C14.6587 20.5194 15.0032 20.1747 15.0032 19.7495C15.0032 19.3242 14.6587 18.9795 14.2338 18.9795C13.8089 18.9795 13.4645 19.3242 13.4645 19.7495C13.4645 20.1747 13.8089 20.5194 14.2338 20.5194Z" fill="#8EB55A"></path><path d="M7.8226 20.263C8.10586 20.263 8.3355 20.0331 8.3355 19.7496C8.3355 19.4661 8.10586 19.2363 7.8226 19.2363C7.53933 19.2363 7.30969 19.4661 7.30969 19.7496C7.30969 20.0331 7.53933 20.263 7.8226 20.263Z" fill="#E5EADA"></path><path d="M17.7601 14.3983C18.185 14.3983 18.5294 14.0536 18.5294 13.6284C18.5294 13.2031 18.185 12.8584 17.7601 12.8584C17.3352 12.8584 16.9907 13.2031 16.9907 13.6284C16.9907 14.0536 17.3352 14.3983 17.7601 14.3983Z" fill="#8EB55A"></path><path d="M14.5544 8.58424C14.8377 8.58424 15.0673 8.35443 15.0673 8.07093C15.0673 7.78744 14.8377 7.55762 14.5544 7.55762C14.2711 7.55762 14.0415 7.78744 14.0415 8.07093C14.0415 8.35443 14.2711 8.58424 14.5544 8.58424Z" fill="#E5EADA"></path><path d="M15.1699 16.9901C15.5948 16.9901 15.9392 16.6454 15.9392 16.2202C15.9392 15.7949 15.5948 15.4502 15.1699 15.4502C14.745 15.4502 14.4005 15.7949 14.4005 16.2202C14.4005 16.6454 14.745 16.9901 15.1699 16.9901Z" fill="#8EB55A"></path><path d="M9.61776 13.5257C9.90103 13.5257 10.1307 13.2958 10.1307 13.0123C10.1307 12.7288 9.90103 12.499 9.61776 12.499C9.33449 12.499 9.10486 12.7288 9.10486 13.0123C9.10486 13.2958 9.33449 13.5257 9.61776 13.5257Z" fill="#E5EADA"></path><path d="M15.1956 24.0351C15.6205 24.0351 15.965 23.6903 15.965 23.2651C15.965 22.8398 15.6205 22.4951 15.1956 22.4951C14.7707 22.4951 14.4263 22.8398 14.4263 23.2651C14.4263 23.6903 14.7707 24.0351 15.1956 24.0351Z" fill="#242E17"></path><path d="M9.63054 27.5132C10.1971 27.5132 10.6563 27.0536 10.6563 26.4866C10.6563 25.9196 10.1971 25.46 9.63054 25.46C9.06401 25.46 8.60474 25.9196 8.60474 26.4866C8.60474 27.0536 9.06401 27.5132 9.63054 27.5132Z" fill="#242E17"></path><path d="M17.7601 26.6151C18.185 26.6151 18.5294 26.2704 18.5294 25.8452C18.5294 25.4199 18.185 25.0752 17.7601 25.0752C17.3352 25.0752 16.9907 25.4199 16.9907 25.8452C16.9907 26.2704 17.3352 26.6151 17.7601 26.6151Z" fill="#8EB55A"></path><path d="M14.5544 31.928C14.8377 31.928 15.0673 31.6982 15.0673 31.4147C15.0673 31.1312 14.8377 30.9014 14.5544 30.9014C14.2711 30.9014 14.0415 31.1312 14.0415 31.4147C14.0415 31.6982 14.2711 31.928 14.5544 31.928Z" fill="#E5EADA"></path><path d="M27.377 24.0351C27.8019 24.0351 28.1464 23.6903 28.1464 23.2651C28.1464 22.8398 27.8019 22.4951 27.377 22.4951C26.9521 22.4951 26.6077 22.8398 26.6077 23.2651C26.6077 23.6903 26.9521 24.0351 27.377 24.0351Z" fill="#242E17"></path><path d="M32.9421 27.5132C33.5086 27.5132 33.9679 27.0536 33.9679 26.4866C33.9679 25.9196 33.5086 25.46 32.9421 25.46C32.3755 25.46 31.9163 25.9196 31.9163 26.4866C31.9163 27.0536 32.3755 27.5132 32.9421 27.5132Z" fill="#242E17"></path><path d="M24.8124 14.3983C25.2373 14.3983 25.5818 14.0536 25.5818 13.6284C25.5818 13.2031 25.2373 12.8584 24.8124 12.8584C24.3875 12.8584 24.0431 13.2031 24.0431 13.6284C24.0431 14.0536 24.3875 14.3983 24.8124 14.3983Z" fill="#8EB55A"></path><path d="M28.0182 8.58424C28.3014 8.58424 28.5311 8.35443 28.5311 8.07093C28.5311 7.78744 28.3014 7.55762 28.0182 7.55762C27.7349 7.55762 27.5052 7.78744 27.5052 8.07093C27.5052 8.35443 27.7349 8.58424 28.0182 8.58424Z" fill="#E5EADA"></path><path d="M28.3387 20.5194C28.7636 20.5194 29.108 20.1747 29.108 19.7495C29.108 19.3242 28.7636 18.9795 28.3387 18.9795C27.9138 18.9795 27.5693 19.3242 27.5693 19.7495C27.5693 20.1747 27.9138 20.5194 28.3387 20.5194Z" fill="#8EB55A"></path><path d="M34.75 20.263C35.0332 20.263 35.2629 20.0331 35.2629 19.7496C35.2629 19.4661 35.0332 19.2363 34.75 19.2363C34.4667 19.2363 34.2371 19.4661 34.2371 19.7496C34.2371 20.0331 34.4667 20.263 34.75 20.263Z" fill="#E5EADA"></path><path d="M24.7996 26.6151C25.2245 26.6151 25.569 26.2704 25.569 25.8452C25.569 25.4199 25.2245 25.0752 24.7996 25.0752C24.3747 25.0752 24.0303 25.4199 24.0303 25.8452C24.0303 26.2704 24.3747 26.6151 24.7996 26.6151Z" fill="#8EB55A"></path><path d="M28.0182 31.9407C28.3014 31.9407 28.5311 31.7109 28.5311 31.4274C28.5311 31.1439 28.3014 30.9141 28.0182 30.9141C27.7349 30.9141 27.5052 31.1439 27.5052 31.4274C27.5052 31.7109 27.7349 31.9407 28.0182 31.9407Z" fill="#E5EADA"></path><path d="M27.4027 16.9901C27.8276 16.9901 28.172 16.6454 28.172 16.2202C28.172 15.7949 27.8276 15.4502 27.4027 15.4502C26.9778 15.4502 26.6333 15.7949 26.6333 16.2202C26.6333 16.6454 26.9778 16.9901 27.4027 16.9901Z" fill="#8EB55A"></path><path d="M21.2863 10.3816C21.782 10.3816 22.1838 9.97938 22.1838 9.48326C22.1838 8.98714 21.782 8.58496 21.2863 8.58496C20.7905 8.58496 20.3887 8.98714 20.3887 9.48326C20.3887 9.97938 20.7905 10.3816 21.2863 10.3816Z" fill="#242E17"></path><path d="M21.2863 30.6573C21.6404 30.6573 21.9274 30.37 21.9274 30.0157C21.9274 29.6613 21.6404 29.374 21.2863 29.374C20.9322 29.374 20.6451 29.6613 20.6451 30.0157C20.6451 30.37 20.9322 30.6573 21.2863 30.6573Z" fill="#CFE6B2"></path><path d="M11.0282 20.3907C11.3823 20.3907 11.6693 20.1034 11.6693 19.7491C11.6693 19.3947 11.3823 19.1074 11.0282 19.1074C10.6741 19.1074 10.3871 19.3947 10.3871 19.7491C10.3871 20.1034 10.6741 20.3907 11.0282 20.3907Z" fill="#CFE6B2"></path><path d="M16.1572 11.4981C16.5113 11.4981 16.7984 11.2109 16.7984 10.8565C16.7984 10.5021 16.5113 10.2148 16.1572 10.2148C15.8032 10.2148 15.5161 10.5021 15.5161 10.8565C15.5161 11.2109 15.8032 11.4981 16.1572 11.4981Z" fill="#CFE6B2"></path><path d="M12.4003 15.2579C12.7544 15.2579 13.0414 14.9706 13.0414 14.6163C13.0414 14.2619 12.7544 13.9746 12.4003 13.9746C12.0462 13.9746 11.7592 14.2619 11.7592 14.6163C11.7592 14.9706 12.0462 15.2579 12.4003 15.2579Z" fill="#CFE6B2"></path><path d="M12.4003 25.781C12.896 25.781 13.2978 25.3788 13.2978 24.8827C13.2978 24.3866 12.896 23.9844 12.4003 23.9844C11.9045 23.9844 11.5027 24.3866 11.5027 24.8827C11.5027 25.3788 11.9045 25.781 12.4003 25.781Z" fill="#242E17"></path><path d="M16.1572 29.2716C16.5113 29.2716 16.7984 28.9843 16.7984 28.6299C16.7984 28.2756 16.5113 27.9883 16.1572 27.9883C15.8032 27.9883 15.5161 28.2756 15.5161 28.6299C15.5161 28.9843 15.8032 29.2716 16.1572 29.2716Z" fill="#CFE6B2"></path><path d="M30.2108 25.8064C30.7065 25.8064 31.1084 25.4042 31.1084 24.9081C31.1084 24.4119 30.7065 24.0098 30.2108 24.0098C29.7151 24.0098 29.3132 24.4119 29.3132 24.9081C29.3132 25.4042 29.7151 25.8064 30.2108 25.8064Z" fill="#242E17"></path><path d="M26.4153 11.4981C26.7694 11.4981 27.0564 11.2109 27.0564 10.8565C27.0564 10.5021 26.7694 10.2148 26.4153 10.2148C26.0612 10.2148 25.7742 10.5021 25.7742 10.8565C25.7742 11.2109 26.0612 11.4981 26.4153 11.4981Z" fill="#CFE6B2"></path><path d="M31.5443 20.3907C31.8984 20.3907 32.1855 20.1034 32.1855 19.7491C32.1855 19.3947 31.8984 19.1074 31.5443 19.1074C31.1902 19.1074 30.9032 19.3947 30.9032 19.7491C30.9032 20.1034 31.1902 20.3907 31.5443 20.3907Z" fill="#CFE6B2"></path><path d="M26.4153 29.2716C26.7694 29.2716 27.0564 28.9843 27.0564 28.6299C27.0564 28.2756 26.7694 27.9883 26.4153 27.9883C26.0612 27.9883 25.7742 28.2756 25.7742 28.6299C25.7742 28.9843 26.0612 29.2716 26.4153 29.2716Z" fill="#CFE6B2"></path><path d="M30.1724 15.2452C30.5265 15.2452 30.8135 14.9579 30.8135 14.6036C30.8135 14.2492 30.5265 13.9619 30.1724 13.9619C29.8183 13.9619 29.5312 14.2492 29.5312 14.6036C29.5312 14.9579 29.8183 15.2452 30.1724 15.2452Z" fill="#CFE6B2"></path><path d="M32.942 13.5257C33.2252 13.5257 33.4549 13.2958 33.4549 13.0123C33.4549 12.7288 33.2252 12.499 32.942 12.499C32.6587 12.499 32.4291 12.7288 32.4291 13.0123C32.4291 13.2958 32.6587 13.5257 32.942 13.5257Z" fill="#E5EADA"></path></svg>